<?xml version="1.0" encoding="UTF-8" standalone="no"?>
<!-- Created with Inkscape (http://www.inkscape.org/) -->

<svg
   version="1.1"
   id="svg1"
   width="1753.3333"
   height="2048"
   viewBox="0 0 1753.3333 2048"
   sodipodi:docname="elura.svg"
   inkscape:version="1.4.2 (f4327f4, 2025-05-13)"
   xmlns:inkscape="http://www.inkscape.org/namespaces/inkscape"
   xmlns:sodipodi="http://sodipodi.sourceforge.net/DTD/sodipodi-0.dtd"
   xmlns="http://www.w3.org/2000/svg"
   xmlns:svg="http://www.w3.org/2000/svg">
  <defs
     id="defs1" />
  <sodipodi:namedview
     id="namedview1"
     pagecolor="#ffffff"
     bordercolor="#000000"
     borderopacity="0.25"
     inkscape:showpageshadow="2"
     inkscape:pageopacity="0.0"
     inkscape:pagecheckerboard="0"
     inkscape:deskcolor="#d1d1d1"
     showgrid="false"
     inkscape:zoom="0.35839844"
     inkscape:cx="876.11989"
     inkscape:cy="1022.6049"
     inkscape:window-width="1920"
     inkscape:window-height="974"
     inkscape:window-x="-11"
     inkscape:window-y="-11"
     inkscape:window-maximized="1"
     inkscape:current-layer="g1" />
  <g
     inkscape:groupmode="layer"
     inkscape:label="Image"
     id="g1">
    <path
       style="fill:#1a1a1a"
       d="m 800.06005,1755.9403 c 0.49841,-1.9858 1.90505,-6.9843 3.12588,-11.1078 1.73138,-5.848 2.86351,-7.5911 5.14628,-7.9234 1.77288,-0.2581 2.8991,0.2675 2.85684,1.3333 -0.0384,0.9677 -1.76908,5.9594 -3.84602,11.0928 -2.24056,5.5377 -4.67355,9.5127 -5.98271,9.7745 -1.78342,0.3566 -2.03272,-0.251 -1.30027,-3.1694 z m -626.8012,-10.4724 c -2.2,-0.9697 -5.6485,-3.4265 -7.66333,-5.4597 -2.01484,-2.0332 -4.32669,-6.1602 -5.13744,-9.1711 -0.81075,-3.0109 -1.12231,-8.0409 -0.69235,-11.1778 0.42996,-3.1369 1.68275,-7.4458 2.78398,-9.5753 1.10123,-2.1296 3.96129,-5.2692 6.35569,-6.9771 3.51421,-2.5065 6.06958,-3.1051 13.25568,-3.1051 6.91169,0 9.72553,0.6147 12.58428,2.7491 2.02513,1.512 4.88098,4.3549 6.34633,6.3175 1.74671,2.3396 2.69347,5.7551 2.74905,9.9176 l 0.0848,6.3492 -19,0.3699 c -15.96115,0.3108 -19,0.6946 -19,2.3995 0,1.1163 0.91015,3.7897 2.02257,5.9409 1.11241,2.1511 3.78261,4.8213 5.93378,5.9338 2.15117,1.1124 6.43392,2.0225 9.51722,2.0225 4.80585,0 6.33012,-0.7612 10.67947,-5.3333 2.79041,-2.9333 5.99751,-5.3333 7.12688,-5.3333 1.12938,0 2.05341,0.8791 2.05341,1.9536 0,1.0744 -1.84936,4.0599 -4.10969,6.6342 -2.30541,2.6258 -6.25668,5.277 -9,6.039 -2.68967,0.7471 -6.69031,1.3381 -8.89031,1.3135 -2.2,-0.025 -5.8,-0.838 -8,-1.8076 z m 24.66667,-28.2661 c 0,-2.1647 -1.70257,-5.1692 -4.53334,-8 -3.69894,-3.6989 -5.55169,-4.5333 -10.06621,-4.5333 -3.04308,0 -7.29293,0.9101 -9.4441,2.0226 -2.15117,1.1124 -4.82137,3.7826 -5.93378,5.9337 -1.11242,2.1512 -2.02257,4.8411 -2.02257,5.9775 0,1.7512 2.43878,2.0662 16,2.0662 h 16 z m 43.13547,28.6768 c -2.30883,-0.6689 -6.03358,-3.3069 -8.27723,-5.8623 -2.24365,-2.5554 -4.76134,-7.1788 -5.59487,-10.2743 -0.83353,-3.0955 -1.13213,-8.0256 -0.66356,-10.9559 0.46857,-2.9303 2.08576,-7.3242 3.59376,-9.7642 1.508,-2.4399 5.18607,-5.6833 8.17348,-7.2073 4.14979,-2.1171 7.12047,-2.631 12.5876,-2.1776 4.26089,0.3533 8.58364,1.6593 10.68492,3.2282 1.94094,1.4491 4.72791,4.2406 6.19326,6.2032 1.74672,2.3396 2.69347,5.7551 2.74905,9.9176 l 0.0848,6.3492 -19,0.3699 c -16.21024,0.3156 -19,0.677 -19,2.4609 0,1.1501 0.98133,3.7523 2.18072,5.7827 1.1994,2.0304 3.84198,4.673 5.87239,5.8724 2.03042,1.1994 6.242,2.1807 9.35906,2.1807 4.87749,0 6.37452,-0.7433 10.74087,-5.3333 2.79041,-2.9333 5.99751,-5.3333 7.12689,-5.3333 1.12937,0 2.0534,0.8791 2.0534,1.9536 0,1.0744 -1.84936,4.0599 -4.10968,6.6342 -2.30541,2.6258 -6.25669,5.277 -9,6.039 -2.68968,0.7471 -6.39032,1.3075 -8.22365,1.2455 -1.83333,-0.062 -5.22237,-0.6601 -7.53119,-1.3289 z m 23.53119,-28.6768 c 0,-2.1647 -1.70256,-5.1692 -4.53333,-8 -3.69895,-3.6989 -5.5517,-4.5333 -10.06622,-4.5333 -3.04308,0 -7.29292,0.9101 -9.44409,2.0226 -2.15117,1.1124 -4.82138,3.7826 -5.93379,5.9337 -1.11241,2.1512 -2.02257,4.8411 -2.02257,5.9775 0,1.7512 2.43879,2.0662 16,2.0662 h 16 z m 225.36057,27.1334 c -3.22912,-1.65 -7.09614,-4.6805 -8.59336,-6.7344 -1.9893,-2.7288 -2.84866,-6.3187 -3.1918,-13.3333 -0.40728,-8.3257 -0.0565,-10.2018 2.64417,-14.1431 1.71256,-2.4992 4.75568,-5.7603 6.76249,-7.2469 2.39287,-1.7726 6.29375,-2.8664 11.33334,-3.1778 6.17587,-0.3816 8.70442,0.125 12.87911,2.5803 2.85699,1.6803 6.30699,5.1458 7.66667,7.701 1.35967,2.5552 2.47213,7.2052 2.47213,10.3334 v 5.6874 h -19.42318 -19.42318 l 0.8664,3 c 0.47651,1.65 1.92479,4.5 3.21838,6.3334 1.29359,1.8333 3.79414,4.0744 5.55678,4.9803 1.76264,0.9059 5.3048,1.6536 7.87147,1.6617 2.56667,0.01 6.56309,-1.1417 8.88095,-2.555 2.31786,-1.4134 4.60829,-3.8111 5.08985,-5.3284 0.48741,-1.5357 2.01793,-2.7586 3.45238,-2.7586 1.47025,0 2.57682,0.9136 2.57682,2.1275 0,1.1701 -1.19226,3.8018 -2.64947,5.8483 -1.45721,2.0465 -5.06936,4.6891 -8.02699,5.8725 -2.95763,1.1834 -7.33823,2.1517 -9.73467,2.1517 -2.39644,0 -6.99917,-1.35 -10.22829,-3 z m 26.63942,-25.0429 c 0,-0.7569 -0.85273,-3.417 -1.89496,-5.9114 -1.05357,-2.5216 -3.68827,-5.4627 -5.93379,-6.6239 -2.22135,-1.1487 -6.22604,-2.0885 -8.89931,-2.0885 -2.67327,0 -6.59337,1.0236 -8.71134,2.2747 -2.11796,1.2512 -4.76054,4.1918 -5.87239,6.5349 -1.11185,2.343 -2.02154,4.9194 -2.02154,5.7252 0,0.9865 5.44472,1.4652 16.66666,1.4652 10.56799,0 16.66667,-0.5036 16.66667,-1.3762 z m 195.33331,26.1728 c -2.2,-0.9711 -4.9588,-2.8976 -6.13066,-4.2811 -1.17187,-1.3835 -2.50304,-3.5655 -2.95816,-4.8488 -0.59988,-1.6916 -0.13372,-2.3334 1.69477,-2.3334 1.38724,0 4.32226,1.8 6.52226,4 3.13627,3.1363 5.17379,4 9.4359,4 3.65811,0 6.30801,-0.8721 8.10256,-2.6666 1.46667,-1.4667 2.66667,-3.8327 2.66667,-5.2578 0,-1.4251 -1.34879,-3.5358 -2.99731,-4.6904 -1.64851,-1.1547 -6.44468,-3.0667 -10.65816,-4.2489 -4.21347,-1.1823 -9.16469,-3.6534 -11.0027,-5.4914 -2.00228,-2.0023 -3.34183,-4.8639 -3.34183,-7.139 0,-2.3116 1.52211,-5.5007 3.89062,-8.1515 3.65631,-4.0921 4.42578,-4.3544 12.77604,-4.3544 8.38551,0 9.10864,0.2499 12.85314,4.4407 2.18225,2.4423 3.77614,5.4354 3.54198,6.6513 -0.23416,1.2159 -1.4671,2.4113 -2.73988,2.6564 -1.48031,0.2851 -2.77296,-0.7611 -3.58753,-2.9036 -0.70037,-1.8421 -2.46267,-3.9858 -3.91623,-4.7637 -1.45356,-0.7779 -4.73942,-1.4144 -7.30192,-1.4144 -2.56249,0 -5.60194,0.9428 -6.75432,2.0952 -1.15238,1.1524 -2.09524,3.4594 -2.09524,5.1267 0,1.6673 1.05,3.9545 2.33334,5.0826 1.28333,1.1282 5.68878,3.0105 9.78988,4.1829 4.10111,1.1724 9.05111,3.3859 11,4.9189 2.6275,2.0667 3.54345,3.9912 3.54345,7.4448 0,2.5616 -0.6483,5.8689 -1.44066,7.3494 -0.79236,1.4806 -3.47309,3.5411 -5.95717,4.579 -2.48409,1.038 -6.48579,1.8637 -8.89268,1.835 -2.40689,-0.029 -6.17616,-0.8468 -8.37616,-1.8179 z m 220.6134,-1.2003 c -3.9685,-2.0985 -6.7779,-4.9079 -8.8764,-8.8763 -1.927,-3.6441 -3.0703,-8.1053 -3.0703,-11.9805 0,-3.7515 1.1772,-8.509 3,-12.1237 2.1916,-4.346 4.6031,-6.7576 8.9491,-8.9491 3.2721,-1.65 8.395,-3 11.3842,-3 2.9892,0 8.1121,1.35 11.3841,3 4.3461,2.1915 6.7576,4.6031 8.9492,8.9491 1.6984,3.368 3,8.3923 3,11.5799 0,3.0969 -0.6368,7.3197 -1.4151,9.3842 -0.7783,2.0644 -3.3017,5.7093 -5.6075,8.0998 -2.3058,2.3905 -6.319,4.9371 -8.9182,5.6592 -2.5992,0.7221 -6.5815,1.3162 -8.8495,1.3203 -2.268,0 -6.7363,-1.3742 -9.9296,-3.0629 z m 23.1257,-7.3867 c 3.4181,-3.4181 4.1738,-5.3574 4.6493,-11.9318 0.4021,-5.559 -0.065,-9.0735 -1.5995,-12.0415 -1.1921,-2.3051 -3.9274,-5.1013 -6.0786,-6.2137 -2.1512,-1.1125 -6.0708,-2.0226 -8.7103,-2.0226 -2.6395,0 -6.5591,0.9101 -8.7103,2.0226 -2.1512,1.1124 -4.8214,3.7826 -5.9338,5.9337 -1.1124,2.1512 -2.0226,6.9985 -2.0226,10.7718 0,4.0611 0.9242,8.4249 2.2649,10.6946 1.2457,2.1088 4.0957,4.7712 6.3333,5.9164 2.5654,1.313 6.222,1.8735 9.8973,1.5171 4.2611,-0.4132 6.9267,-1.663 9.9103,-4.6466 z m 109.39642,9.0005 c -2.3089,-0.6689 -6.0336,-3.3069 -8.2773,-5.8623 -2.2436,-2.5554 -4.7459,-7.1216 -5.5606,-10.1471 -0.8147,-3.0256 -1.0765,-7.9835 -0.5818,-11.0175 0.4947,-3.0341 2.0965,-7.4852 3.5595,-9.8913 1.4631,-2.4062 5.1043,-5.6218 8.0917,-7.1458 4.1498,-2.1171 7.1205,-2.631 12.5876,-2.1776 4.2609,0.3533 8.5837,1.6593 10.685,3.2282 1.9409,1.4491 4.7279,4.2406 6.1932,6.2032 1.7467,2.3396 2.6935,5.7551 2.7491,9.9176 l 0.085,6.3492 -19,0.3699 c -16.2103,0.3156 -19,0.677 -19,2.4609 0,1.1501 0.9813,3.7523 2.1807,5.7827 1.1994,2.0304 3.8419,4.673 5.8724,5.8724 2.0304,1.1994 6.242,2.1807 9.359,2.1807 4.8775,0 6.3745,-0.7433 10.7409,-5.3333 2.7904,-2.9333 5.9975,-5.3333 7.1269,-5.3333 1.1294,0 2.0534,0.8791 2.0534,1.9536 0,1.0744 -1.8494,4.0599 -4.1097,6.6342 -2.3054,2.6258 -6.2567,5.277 -9,6.039 -2.6897,0.7471 -6.3903,1.3075 -8.2236,1.2455 -1.8334,-0.062 -5.2224,-0.6601 -7.5312,-1.3289 z m 23.5312,-28.6768 c 0,-2.1647 -1.7026,-5.1692 -4.5334,-8 -3.6989,-3.6989 -5.5517,-4.5333 -10.0662,-4.5333 -3.0431,0 -7.2929,0.9101 -9.4441,2.0226 -2.1512,1.1124 -4.8214,3.7826 -5.9338,5.9337 -1.1124,2.1512 -2.0225,4.8411 -2.0225,5.9775 0,1.7512 2.4387,2.0662 16,2.0662 h 16 z m 194.159,28.7541 c -2.1125,-0.6325 -5.3195,-2.5309 -7.1267,-4.2187 -1.8071,-1.6878 -4.2241,-4.8687 -5.371,-7.0687 -1.147,-2.2 -2.1297,-7.3 -2.1839,-11.3333 -0.066,-4.9115 0.8002,-9.0947 2.6226,-12.6667 1.8599,-3.6454 4.5795,-6.2828 8.5931,-8.3333 3.2295,-1.65 8.2553,-3 11.1684,-3 2.9131,0 7.8499,1.236 10.9707,2.7468 4.1196,1.9942 6.4267,4.3013 8.4209,8.4209 1.5108,3.1208 2.7468,7.8848 2.7468,10.5866 v 4.9123 h -19.4778 -19.4779 l 0.858,3.6667 c 0.472,2.0167 2.9282,5.6167 5.4583,8 3.6519,3.4399 5.7302,4.3333 10.0808,4.3333 3.0143,0 7.172,-0.9991 9.2393,-2.2203 2.0673,-1.2212 4.397,-3.6212 5.1771,-5.3334 0.8053,-1.7673 2.5835,-3.1129 4.1137,-3.1129 1.4823,0 2.6952,0.8791 2.6952,1.9536 0,1.0744 -1.8494,4.0599 -4.1097,6.6342 -2.3054,2.6258 -6.2567,5.277 -9,6.039 -2.6897,0.7471 -6.3903,1.3101 -8.2236,1.2511 -1.8334,-0.059 -5.0618,-0.6247 -7.1743,-1.2572 z m 23.1446,-28.9541 c -0.016,-2.0166 -1.0663,-4.9464 -2.3333,-6.5106 -1.267,-1.5642 -3.6142,-3.5142 -5.216,-4.3333 -1.6018,-0.8192 -5.0816,-1.4894 -7.7329,-1.4894 -2.6513,0 -6.5806,0.9101 -8.7318,2.0226 -2.1511,1.1124 -4.8213,3.7826 -5.9338,5.9337 -1.1124,2.1512 -2.0225,4.8411 -2.0225,5.9775 0,1.7512 2.4388,2.0662 16,2.0662 h 16 z m 87.7151,29.0834 c -2.0064,-0.6468 -5.7617,-2.4824 -8.3452,-4.0791 -2.5834,-1.5967 -6.3418,-5.7008 -8.352,-9.1203 -3.1068,-5.2849 -3.6549,-7.717 -3.6549,-16.2173 0,-8.5313 0.5437,-10.925 3.7021,-16.2979 2.3041,-3.9197 5.9028,-7.5876 9.5301,-9.7133 3.2054,-1.8785 8.8109,-3.7687 12.4568,-4.2005 4.5212,-0.5355 8.7987,-0.064 13.453,1.4815 4.7302,1.5711 8.2611,3.9454 11.5077,7.7384 2.576,3.0095 4.6836,6.2638 4.6836,7.2318 0,0.968 -1.3706,1.76 -3.0458,1.76 -1.9502,0 -3.8713,-1.3974 -5.3405,-3.8845 -1.2621,-2.1365 -5.0366,-5.2119 -8.3878,-6.8342 -4.7584,-2.3035 -7.4234,-2.7673 -12.1659,-2.1173 -3.34,0.4579 -7.9677,2.0036 -10.2838,3.435 -2.3161,1.4314 -5.5382,4.9639 -7.1603,7.85 -2.1009,3.7381 -2.9492,7.471 -2.9492,12.9782 0,5.0941 0.9418,9.6764 2.7613,13.4349 1.6273,3.3616 4.7732,6.9475 7.6607,8.7321 3.5432,2.1897 6.9343,3.028 12.2496,3.028 4.9215,0 8.8883,-0.8838 12.0059,-2.6749 2.7647,-1.5885 5.8744,-5.079 7.6558,-8.5937 1.65,-3.2552 3,-6.9915 3,-8.3028 0,-2.1227 -1.3892,-2.3841 -12.6666,-2.3841 -10.3704,0 -12.6667,-0.3626 -12.6667,-2 0,-1.668 2.6868,-2 16.1812,-2 h 16.1813 l -0.8533,6.2253 c -0.4693,3.424 -2.3668,8.808 -4.2167,11.9646 -2.0024,3.4168 -5.7515,7.1387 -9.2651,9.1978 -3.6796,2.1564 -8.5609,3.6619 -12.9645,3.9985 -3.8846,0.2969 -8.7045,0.011 -10.7108,-0.6362 z m 105.5946,-1.8204 c -3.9684,-2.0985 -6.7778,-4.9079 -8.8764,-8.8763 -1.927,-3.6441 -3.0703,-8.1053 -3.0703,-11.9805 0,-3.7515 1.1772,-8.509 3,-12.1237 2.1916,-4.346 4.6031,-6.7576 8.9492,-8.9491 3.2992,-1.6637 8.3475,-2.987 11.3333,-2.9708 2.9613,0.016 7.8414,1.1453 10.8448,2.5093 3.1716,1.4404 6.6655,4.4295 8.3351,7.131 1.581,2.558 3.245,7.3539 3.6978,10.6574 0.4777,3.4852 0.1307,8.1752 -0.8266,11.1731 -0.9075,2.8416 -3.5021,7.1225 -5.766,9.513 -2.2638,2.3905 -6.2426,4.9371 -8.8418,5.6592 -2.5992,0.7221 -6.5814,1.3162 -8.8494,1.3203 -2.268,0 -6.7364,-1.3742 -9.9297,-3.0629 z m 20.17,-5.303 c 2.4811,-1.672 5.261,-4.522 6.1776,-6.3333 0.9165,-1.8114 1.6752,-5.9027 1.686,-9.0918 0.011,-3.1892 -0.89,-7.7156 -2.0018,-10.0586 -1.1119,-2.3431 -3.7545,-5.2837 -5.8724,-6.5349 -2.118,-1.2511 -6.0381,-2.2747 -8.7114,-2.2747 -2.6732,0 -6.6205,0.9101 -8.7717,2.0226 -2.1511,1.1124 -4.8906,3.9165 -6.0876,6.2313 -1.197,2.3147 -2.1764,7.0005 -2.1764,10.4128 0,3.4122 0.9381,8.0181 2.0846,10.2353 1.1466,2.2171 4.0658,5.0076 6.4872,6.2009 2.4214,1.1933 6.2638,2.1834 8.5387,2.2001 2.2749,0.017 6.1661,-1.3377 8.6472,-3.0097 z M 105.92552,1716.6685 v -29.3333 h 16 c 13.15741,0 16,0.3467 16,1.9517 0,1.5538 -2.65007,2.0295 -13,2.3333 l -13,0.3816 -0.38726,11 -0.38725,11 h 11.38725 c 10.49837,0 11.38726,0.2082 11.38726,2.6667 0,2.4575 -0.88889,2.6667 -11.33333,2.6667 h -11.33334 v 13.3333 c 0,12.4444 -0.17777,13.3333 -2.66666,13.3333 -2.58586,0 -2.66667,-0.8889 -2.66667,-29.3333 z m 190.66666,-2 c 0,-30.4445 0.0756,-31.3333 2.66667,-31.3333 2.59101,0 2.66666,0.8888 2.66666,31.3333 0,30.4444 -0.0756,31.3333 -2.66666,31.3333 -2.59102,0 -2.66667,-0.8889 -2.66667,-31.3333 z m 76.58817,29.4448 c -2.28335,-1.666 -2.66669,-4.0608 -3.25484,-20.3333 -0.64628,-17.8809 -0.7584,-18.4579 -3.66667,-18.8709 -1.88372,-0.2675 -3,-1.3493 -3,-2.9073 0,-1.5579 1.11628,-2.6397 3,-2.9072 2.40977,-0.3423 3.08142,-1.4098 3.41382,-5.4261 0.32419,-3.917 0.97399,-5 3,-5 2.12234,0 2.58618,0.9434 2.58618,5.2603 v 5.2602 l 6.32134,0.4064 c 4.76308,0.3062 6.43057,0.9816 6.76443,2.7398 0.37483,1.9738 -0.59911,2.3333 -6.32134,2.3333 h -6.76443 l 0.0204,16.3333 c 0.0112,8.9834 0.46901,17.0387 1.0173,17.9007 0.54829,0.862 3.38411,1.762 6.30183,2 3.77925,0.3082 5.43211,1.1037 5.74713,2.766 0.37219,1.964 -0.58823,2.3333 -6.06741,2.3333 -3.58027,0 -7.67427,-0.8498 -9.09776,-1.8885 z m 39.41182,-29.4448 c 0,-30.4445 0.0756,-31.3333 2.66667,-31.3333 2.45918,0 2.66667,0.8888 2.66667,11.4241 v 11.4241 l 4.33333,-3.0908 c 3.41785,-2.4378 6.08846,-3.0908 12.64102,-3.0908 7.60278,0 8.67756,0.3696 12.66667,4.3552 l 4.35898,4.3552 0.43411,18.6448 c 0.42193,18.1217 0.35646,18.6448 -2.33334,18.6448 -2.64129,0 -2.76744,-0.7019 -2.76744,-15.3995 0,-11.1276 -0.55865,-16.4799 -2.0138,-19.2938 -1.10759,-2.1419 -3.16815,-4.5121 -4.57901,-5.2672 -1.41087,-0.755 -4.87115,-1.3728 -7.68953,-1.3728 -2.81837,0 -6.52119,0.9784 -8.2285,2.1742 -1.7073,1.1959 -3.9408,4.1766 -4.96334,6.6239 -1.19065,2.8496 -1.85915,9.499 -1.85915,18.4924 0,13.1539 -0.1688,14.0428 -2.66667,14.0428 -2.59102,0 -2.66667,-0.8889 -2.66667,-31.3333 z m 172,1.9114 v -29.4219 l 3.5158,0.4219 c 3.18278,0.382 4.53352,2.7268 14.26006,24.7553 5.90934,13.3833 11.14911,24.3333 11.64394,24.3333 0.49482,0 5.85591,-11.1 11.91353,-24.6667 9.8064,-21.9624 11.36025,-24.6666 14.17359,-24.6666 h 3.15974 v 29.3333 c 0,28.4444 -0.0808,29.3333 -2.66667,29.3333 -2.55438,0 -2.66666,-0.8889 -2.66666,-21.1111 0,-11.6111 -0.40145,-21.5125 -0.8921,-22.0032 -0.49065,-0.4906 -5.21524,8.8594 -10.49909,20.7778 -7.25273,16.3595 -10.24582,21.767 -12.21382,22.0661 -2.18919,0.3328 -4.19191,-3.1588 -12.5009,-21.7942 l -9.89409,-22.1904 -0.36557,22.1275 -0.36558,22.1275 h -3.30109 -3.30109 z m 86.66666,6.0886 c 0,-22.4445 0.10159,-23.3333 2.66666,-23.3333 2.56508,0 2.66667,0.8888 2.66667,23.3333 0,22.4444 -0.10159,23.3333 -2.66667,23.3333 -2.56507,0 -2.66666,-0.8889 -2.66666,-23.3333 z m 95.99998,20.6667 c -2.40329,-2.4033 -2.66666,-4.4445 -2.66666,-20.6667 v -18 h -3.33334 c -2.44444,0 -3.33333,-0.7111 -3.33333,-2.6667 0,-1.9555 0.88889,-2.6666 3.33333,-2.6666 3,0 3.33334,-0.5334 3.33334,-5.3334 0,-4.4444 0.44444,-5.3333 2.66666,-5.3333 2.21605,0 2.66667,0.8889 2.66667,5.2603 v 5.2602 l 6.32134,0.4064 c 4.76308,0.3062 6.43057,0.9816 6.76443,2.7398 0.37483,1.9738 -0.59911,2.3333 -6.32134,2.3333 h -6.76443 v 15.7451 c 0,10.5445 0.55051,16.4653 1.66667,17.9254 0.91666,1.1991 3.76175,2.3638 6.32241,2.5882 3.17095,0.2779 4.79672,1.1521 5.09777,2.7413 0.37388,1.9737 -0.6006,2.3333 -6.32242,2.3333 -4.98665,0 -7.46526,-0.7008 -9.4311,-2.6666 z m 105.33337,-26.6667 v -29.3333 h 3.3333 3.3333 v 27.3333 27.3333 h 10.66671 c 8.5926,0 10.66669,0.3889 10.66669,2 0,1.6508 -2.44449,2 -13.99999,2 h -14.00001 z m 123.55051,7 c -4.9276,-12.2833 -8.94231,-22.8251 -8.92161,-23.4261 0.021,-0.601 1.3333,-0.901 2.91681,-0.6666 2.3811,0.3523 4.1682,3.8234 10.33331,20.0702 4.0999,10.8043 7.7543,19.6536 8.121,19.6652 0.3666,0.012 4.0295,-8.8282 8.1397,-19.6441 6.1554,-16.198 7.9773,-19.7404 10.3333,-20.0913 1.5732,-0.2344 2.8603,0.2245 2.8603,1.0198 0,0.7953 -4.0022,11.337 -8.8939,23.4261 -8.3422,20.6168 -9.112,21.9801 -12.4117,21.9801 -3.3051,0 -4.06,-1.3513 -12.47721,-22.3333 z m 166.32281,19.531 c -2.1776,-2.4025 -2.6023,-5.3511 -2.9767,-20.6667 l -0.4366,-17.8643 h -3.3278 c -2.4498,0 -3.2105,-0.6156 -2.8831,-2.3333 0.2446,-1.2834 1.7886,-2.5251 3.4311,-2.7594 2.5142,-0.3587 2.9864,-1.2548 2.9864,-5.6667 0,-4.7011 0.3432,-5.2406 3.3333,-5.2406 3,0 3.3334,0.5333 3.3334,5.3333 v 5.3334 h 6 c 5.1111,0 6,0.395 6,2.6666 0,2.2742 -0.8889,2.6667 -6.0387,2.6667 h -6.0387 l 0.372,17.6667 0.372,17.6666 5.6667,0.41 c 4.5812,0.3315 5.6667,0.9062 5.6667,3 0,2.2081 -0.9526,2.59 -6.46,2.59 -4.8697,0 -7.0853,-0.6898 -9,-2.8023 z m 39.46,-28.531 v -31.3333 h 3.3333 c 3.2994,0 3.3333,0.1178 3.3333,11.5657 v 11.5658 l 3.3231,-3.1219 c 2.3683,-2.2249 5.3705,-3.2917 10.4486,-3.7128 5.014,-0.4158 8.4065,0.072 11.4484,1.6446 2.7091,1.4009 5.2683,4.3178 6.8554,7.8136 2.0205,4.4503 2.5386,8.7463 2.5619,21.245 l 0.029,15.6666 h -3.3333 -3.3334 v -16.7692 c 0,-16.7566 0,-16.7722 -3.8974,-20.6667 -3.0533,-3.0533 -5.0938,-3.8974 -9.421,-3.8974 -3.0379,0 -6.6779,0.6178 -8.0887,1.3728 -1.4109,0.7551 -3.4715,3.1253 -4.5791,5.2672 -1.4551,2.8139 -2.0138,8.1662 -2.0138,19.2938 v 15.3995 h -3.3333 -3.3333 z m 254.6666,0 c 0,-30.4445 0.076,-31.3333 2.6667,-31.3333 2.591,0 2.6667,0.8888 2.6667,31.3333 0,30.4444 -0.076,31.3333 -2.6667,31.3333 -2.591,0 -2.6667,-0.8889 -2.6667,-31.3333 z m 107.4672,20.4118 c -1.8748,-6.0932 -4.9128,-15.8785 -6.7512,-21.7451 -1.8385,-5.8667 -3.3516,-11.4167 -3.3626,-12.3334 -0.011,-0.9166 1.1374,-1.6666 2.552,-1.6666 1.9579,0 3.0536,1.6715 4.5884,7 1.109,3.85 3.6585,12.843 5.6656,19.9845 2.0071,7.1415 3.8895,12.7444 4.1831,12.4507 0.2937,-0.2936 3.3367,-9.1367 6.7624,-19.6512 5.2408,-16.086 6.6778,-19.1815 9.062,-19.5216 2.5542,-0.3644 3.4661,1.58 9.2494,19.7219 3.5287,11.0694 6.8189,19.3514 7.3114,18.4043 0.4926,-0.9471 2.8532,-8.922 5.2459,-17.722 2.3927,-8.8 4.8985,-17.05 5.5686,-18.3333 0.6701,-1.2833 2.0972,-2.3333 3.1714,-2.3333 1.0742,0 1.9466,0.75 1.9387,1.6666 -0.01,0.9167 -0.8373,4.3667 -1.843,7.6667 -1.0057,3.3 -4.0325,13.05 -6.7263,21.6667 -4.4376,14.1945 -5.1937,15.6666 -8.0465,15.6666 -2.8638,0 -3.714,-1.6962 -9.3977,-18.7504 -3.437,-10.3127 -6.5281,-18.4714 -6.8691,-18.1303 -0.3411,0.341 -3.2408,8.6287 -6.444,18.4171 -5.2623,16.0813 -6.1432,17.8367 -9.1368,18.2088 -3.0735,0.382 -3.5593,-0.3889 -6.7217,-10.6667 z m -892.84577,-45.7997 c -1.31133,-1.5801 -1.41959,-2.7721 -0.39873,-4.3905 0.77073,-1.2219 2.53593,-2.2216 3.92268,-2.2216 1.91004,0 2.52135,0.9654 2.52135,3.9817 0,2.5815 -0.74646,4.1255 -2.12262,4.3905 -1.16743,0.2249 -2.93264,-0.5672 -3.92268,-1.7601 z M 434.9228,1562.8437 c -2.75149,-1.0246 -7.05966,-3.4317 -9.5737,-5.3493 -2.51405,-1.9176 -5.75079,-5.1433 -7.19277,-7.1684 -1.44197,-2.0251 -3.32513,-6.294 -4.18479,-9.4866 -0.85966,-3.1925 -1.17686,-8.0902 -0.70489,-10.8838 0.47197,-2.7936 2.56715,-7.7741 4.65595,-11.0678 3.12635,-4.9297 5.76076,-6.9487 14.90036,-11.4196 6.1064,-2.9872 20.70254,-8.1788 32.43588,-11.537 11.73333,-3.3581 21.87238,-6.6351 22.53121,-7.2821 0.7077,-0.695 0.56771,-4.3418 -0.3421,-8.9118 -0.84699,-4.2545 -2.64121,-9.2355 -3.98714,-11.0688 -1.34594,-1.8333 -4.37228,-4.644 -6.72519,-6.2458 -2.35291,-1.6019 -7.58979,-3.3263 -11.6375,-3.832 -4.17835,-0.522 -10.58098,-0.2725 -14.81235,0.5773 -4.09907,0.8232 -10.09771,3.0467 -13.33031,4.9411 -3.23259,1.8944 -7.48675,5.7725 -9.4537,8.618 -1.96694,2.8454 -4.66669,5.1963 -5.99944,5.2241 -1.88673,0.039 -2.23207,-0.6135 -1.55993,-2.9494 0.47478,-1.65 2.34176,-6.114 4.14883,-9.9201 1.9085,-4.0197 6.33634,-9.7083 10.56439,-13.5725 4.21446,-3.8518 10.50456,-7.9232 14.94102,-9.6708 6.26684,-2.4687 10.33317,-3.0292 22.32887,-3.0778 8.06667,-0.033 17.06667,0.6666 20,1.5539 2.93334,0.8873 8.63334,3.5838 12.66667,5.9921 4.60662,2.7506 8.93122,6.7666 11.63075,10.8006 2.36359,3.532 4.91024,8.6282 5.65924,11.3249 0.75498,2.7182 1.39865,20.3505 1.4445,39.5697 0.0552,23.156 0.6111,36.2162 1.6741,39.3334 1.41226,4.1413 2.11676,4.6666 6.25807,4.6666 4.06937,0 4.97938,-0.6399 7.10981,-5 1.34373,-2.75 3.29373,-5 4.33334,-5 1.0396,0 1.89019,1.2298 1.89019,2.7329 0,1.5031 -0.87845,4.4316 -1.95211,6.5078 -1.07366,2.0763 -3.75842,5.2949 -5.96613,7.1526 -2.20771,1.8577 -6.21138,4.1028 -8.89705,4.9891 -2.88333,0.9516 -8.83585,1.3579 -14.53533,0.9921 -6.81306,-0.4372 -11.05383,-1.4856 -14.41696,-3.5642 -2.62057,-1.6196 -6.04869,-5.0223 -7.61804,-7.5615 l -2.85337,-4.6169 -5.09932,4.0387 c -2.80462,2.2213 -8.60084,5.6471 -12.8805,7.6129 -6.07904,2.7923 -10.26038,3.6668 -19.11452,3.9977 -7.40273,0.2766 -13.06836,-0.2226 -16.33604,-1.4393 z m 39.0027,-12.9466 c 3.3,-1.492 7.95,-4.5966 10.33334,-6.8989 l 4.33333,-4.1862 v -20.8495 c 0,-11.4673 -0.37058,-21.2201 -0.8235,-21.6731 -0.45293,-0.4529 -6.12017,1.8367 -12.59387,5.088 -6.47371,3.2513 -13.99251,7.8625 -16.70844,10.2471 -2.71594,2.3846 -5.7487,6.2758 -6.73946,8.647 -0.99077,2.3712 -1.80139,7.3545 -1.80139,11.0739 0,4.1941 1.04182,8.8048 2.74296,12.1393 1.70952,3.3509 4.34687,6.0742 7,7.228 2.34137,1.0183 5.15703,1.8617 6.25703,1.8743 1.1,0.013 4.7,-1.1978 8,-2.6899 z m 125.33333,12.799 c -3.3,-1.0667 -8.26741,-3.8173 -11.03869,-6.1125 -2.77129,-2.2952 -6.37129,-6.665 -8,-9.7107 -2.82615,-5.285 -2.99174,-7.4048 -3.62797,-46.4439 -0.63111,-38.7242 -0.81412,-41.1068 -3.43089,-44.6667 -1.67271,-2.2756 -5.24155,-4.5502 -9.03797,-5.7605 -4.99169,-1.5913 -6.19787,-2.5449 -5.90245,-4.6666 0.33854,-2.4314 2.25386,-2.8625 21.70464,-4.8857 11.73333,-1.2204 23.58333,-2.2704 26.33333,-2.3333 l 5,-0.1144 0.002,45.6667 c 0.002,40.8159 0.24971,46.1595 2.33334,50.3067 1.28219,2.5521 4.43126,6.0533 6.99792,7.7805 4.04635,2.7228 5.93862,3.0781 14.23548,2.6722 8.31085,-0.4065 10.23003,-1.0032 14.59837,-4.5388 2.76625,-2.2389 7.04849,-7.0004 9.51609,-10.5811 l 4.48655,-6.5104 -0.41825,-31.3979 c -0.33441,-25.1046 -0.81911,-32.0214 -2.41824,-34.5088 -1.1,-1.7109 -4.22609,-4.2609 -6.94688,-5.6666 -2.72079,-1.4057 -5.87079,-2.5558 -7,-2.5558 -1.25698,0 -2.05312,-1.1962 -2.05312,-3.0848 0,-3.0288 0.44068,-3.1256 24.33333,-5.3442 13.38334,-1.2427 25.38333,-2.2546 26.66666,-2.2486 2.17949,0.01 2.3383,3.3296 2.40859,50.3443 0.0528,35.3203 0.54993,51.7252 1.66667,55 1.27546,3.7401 3.11348,5.4276 9.25807,8.4996 4.84832,2.424 7.66667,4.6708 7.66667,6.1121 0,1.9667 -2.60437,2.5036 -19,3.9164 -10.45,0.9005 -22.44999,1.9856 -26.66666,2.4112 l -7.66666,0.7739 v -13.5233 c 0,-7.4378 -0.37951,-13.5233 -0.84336,-13.5233 -0.46385,0 -4.39793,3.8792 -8.74239,8.6204 -5.51779,6.0217 -10.53836,9.9198 -16.6542,12.9306 -7.46962,3.6772 -10.4441,4.3668 -20.25761,4.6964 -7.42492,0.2494 -13.62939,-0.3012 -17.50244,-1.5531 z m 282.65805,0.8121 c -1.8381,-0.6061 -5.1381,-2.0419 -7.3334,-3.1905 -2.1952,-1.1486 -5.9109,-4.0896 -8.2571,-6.5355 -2.3462,-2.4459 -5.1962,-6.6778 -6.3333,-9.4042 -1.1372,-2.7265 -2.0676,-7.487 -2.0676,-10.5791 0,-3.092 1.2539,-8.212 2.7864,-11.3777 1.5325,-3.1658 4.9825,-7.5681 7.6667,-9.783 2.6841,-2.2149 9.4922,-5.807 15.1291,-7.9824 5.63691,-2.1754 19.1256,-6.5125 29.975,-9.638 l 19.7262,-5.6826 -0.4322,-6 c -0.2378,-3.3 -1.3052,-8.0919 -2.3721,-10.6485 -1.0668,-2.5567 -3.2333,-6.0254 -4.8143,-7.7084 -1.5811,-1.6829 -6.1593,-4.0148 -10.1739,-5.1818 -4.7555,-1.3825 -9.9772,-1.8791 -14.9836,-1.4252 -4.22639,0.3833 -10.92619,2.181 -14.88839,3.995 -4.51051,2.0649 -9.13221,5.6046 -12.36051,9.4668 -2.8361,3.3928 -5.9294,6.1687 -6.8741,6.1687 -0.9447,0 -1.7172,-0.75 -1.7166,-1.6666 6e-4,-0.9167 1.7523,-5.3684 3.8926,-9.8926 2.1403,-4.5243 6.3194,-10.6538 9.2867,-13.6212 2.9674,-2.9673 8.28571,-6.8599 11.81861,-8.6501 3.5328,-1.7902 10.1822,-3.9945 14.77639,-4.8983 4.8079,-0.9459 12.7116,-1.3361 18.6223,-0.9194 5.6479,0.3981 13.6011,1.9809 17.6736,3.5171 4.0725,1.5363 9.3158,4.2033 11.6517,5.9267 2.336,1.7234 6.0559,5.4095 8.2666,8.1912 2.2106,2.7818 4.9174,8.0817 6.0149,11.7775 1.531,5.1555 2.0265,14.8109 2.1285,41.4777 0.073,19.1169 0.5367,36.2012 1.0303,37.9652 0.4936,1.7639 1.8409,3.8023 2.994,4.5296 1.1532,0.7274 3.6514,0.9324 5.5516,0.4554 2.3692,-0.5946 3.9847,-2.3323 5.1409,-5.5296 1.0759,-2.9754 2.554,-4.6626 4.0848,-4.6626 1.3193,0 2.3988,0.861 2.3988,1.9132 0,1.0523 -0.64,3.6023 -1.4222,5.6667 -0.7821,2.0644 -2.7321,5.1826 -4.3333,6.9293 -1.6011,1.7468 -5.3112,4.2836 -8.2445,5.6374 -3.5767,1.6508 -8.4075,2.4615 -14.6667,2.4615 -6.3254,0 -11.133,-0.8171 -14.9177,-2.5353 -3.1762,-1.4421 -7.2763,-4.871 -9.5077,-7.9514 l -3.9233,-5.416 -5.159,4.1614 c -2.8374,2.2888 -8.3871,5.6598 -12.3327,7.4913 -5.4699,2.539 -9.9036,3.4392 -18.66669,3.7901 -6.3211,0.2532 -12.99681,-0.036 -14.83481,-0.6418 z m 40.6769,-15.4989 c 2.9342,-1.6854 6.3991,-4.2403 7.6998,-5.6775 2.0976,-2.3179 2.3234,-5.1038 1.9983,-24.6598 l -0.3664,-22.0466 -10.8957,5.3043 c -5.9926,2.9174 -13.3583,7.4123 -16.3683,9.9887 -3.0099,2.5764 -6.39969,6.4773 -7.53289,8.6685 -1.1331,2.1913 -2.0602,7.2448 -2.0602,11.23 0,4.3013 0.9869,9.2654 2.4285,12.2154 1.4587,2.9849 4.29229,5.9076 7.09529,7.3185 3.0135,1.5168 6.0836,2.0609 8.6666,1.5359 2.2,-0.4471 6.4008,-2.192 9.335,-3.8774 z m 528.66502,-6.0075 c 0,-21.438 0.1383,-22.6666 2.5519,-22.6666 1.7647,0 4.1038,2.7762 7.5829,9 2.7671,4.95 8.0687,12.0213 11.7814,15.7141 3.7128,3.6927 9.0008,7.771 11.7512,9.0629 2.7504,1.2918 7.9014,2.6923 11.4468,3.1122 4.8336,0.5725 7.9737,0.088 12.5534,-1.9382 3.3591,-1.4859 7.2081,-4.3816 8.5533,-6.435 1.4649,-2.236 2.3961,-5.9624 2.3219,-9.2914 -0.077,-3.4386 -1.2499,-7.1393 -3.0766,-9.7047 -1.9554,-2.7462 -7.0919,-6.135 -15.2094,-10.0345 -6.7412,-3.2384 -17.3568,-8.2528 -23.5901,-11.1433 -6.2334,-2.8904 -13.3691,-6.9753 -15.8572,-9.0776 -2.4882,-2.1022 -5.9323,-6.8468 -7.6537,-10.5434 -1.928,-4.1405 -3.1347,-9.2215 -3.1428,-13.2331 -0.01,-3.5816 0.6926,-8.8671 1.555,-11.7456 0.8624,-2.8785 3.9384,-7.9265 6.8356,-11.2178 2.8971,-3.2913 8.2754,-7.5084 11.9517,-9.3713 4.5912,-2.3266 9.6527,-3.5903 16.1644,-4.0358 5.2142,-0.3567 15.4803,0.218 22.8136,1.2772 11.327,1.636 13.8752,1.6509 16.9338,0.099 1.9803,-1.0048 4.5303,-1.827 5.6667,-1.827 1.7677,0 2.0662,2.6971 2.0662,18.6667 0,15.2769 -0.3454,18.6667 -1.9021,18.6667 -1.0462,0 -3.7762,-3.2754 -6.0666,-7.2786 -2.2904,-4.0032 -6.9321,-9.7149 -10.3149,-12.6926 -3.8479,-3.387 -8.863,-6.2024 -13.3957,-7.5201 -4.6783,-1.36 -9.2905,-1.7995 -13.0185,-1.2404 -3.1754,0.4761 -7.7675,2.2052 -10.2045,3.8422 -3.687,2.4767 -4.5003,3.9303 -4.8438,8.6571 -0.3544,4.8759 0.1579,6.2138 3.6161,9.4442 2.2159,2.07 12.016,7.1466 21.7782,11.2815 9.7621,4.1348 20.1348,9.1008 23.0505,11.0354 2.9157,1.9347 6.7107,4.7822 8.4333,6.3278 1.7226,1.5456 4.6943,5.8101 6.6037,9.4768 2.8943,5.5576 3.4723,8.4411 3.4745,17.3333 0,8.5433 -0.6126,11.8611 -3.0879,16.6667 -1.6999,3.3 -6.0598,8.8207 -9.6888,12.2683 -3.9562,3.7585 -9.5215,7.3621 -13.8992,9 -4.4249,1.6556 -10.564,2.7428 -15.5843,2.7599 -4.5558,0.015 -14.3174,-0.9862 -21.6923,-2.2262 -12.5331,-2.1072 -13.7005,-2.109 -17.8715,-0.028 -2.4544,1.2244 -5.5704,2.2262 -6.9244,2.2262 -2.297,0 -2.4618,-1.5176 -2.4618,-22.6667 z m 152.9369,20.7436 c -2.7847,-0.9933 -7.4015,-3.3536 -10.2596,-5.245 -2.8581,-1.8914 -6.8797,-6.3023 -8.9369,-9.8021 l -3.7404,-6.3631 -0.6667,-44.6667 -0.6666,-44.6667 -10.3334,-0.3894 c -8.9991,-0.3391 -10.3333,-0.7058 -10.3333,-2.8398 0,-1.4282 3.1982,-4.8467 7.6667,-8.1947 4.2166,-3.1594 11.781,-9.6815 16.8097,-14.4936 5.0287,-4.812 13.0304,-13.3991 17.7817,-19.0825 5.1808,-6.1971 9.6474,-10.3333 11.1588,-10.3333 2.3598,0 2.5433,1.4633 2.8849,23 l 0.3649,23 19,0.3699 19,0.37 v 3.9268 3.9267 l -19,0.37 -19,0.3699 v 40.6667 c 0,38.0287 0.1729,41.007 2.6666,45.9139 1.4667,2.8861 4.2482,6.402 6.181,7.8133 1.9329,1.4113 6.1835,2.8669 9.4458,3.2346 4.0846,0.4604 7.3493,-0.049 10.4856,-1.6359 2.5049,-1.2675 5.8142,-3.4543 7.3542,-4.8596 2.3296,-2.126 3.0533,-2.2497 4.309,-0.7368 1.1621,1.4003 0.7412,2.8668 -1.8305,6.3778 -1.8367,2.5076 -5.5516,6.2235 -8.2552,8.2574 -2.7037,2.0339 -7.8988,4.5839 -11.5448,5.6667 -3.646,1.0827 -10.8702,1.9423 -16.0537,1.9101 -5.1836,-0.032 -11.7031,-0.8713 -14.4878,-1.8646 z M 76.832787,1557.8085 c 0.30402,-2.0408 1.96182,-3.3114 5.78734,-4.4359 2.94869,-0.8666 6.94782,-2.6153 8.88694,-3.8859 1.93912,-1.2705 4.47655,-4.6866 5.63873,-7.5911 1.83295,-4.581 2.11305,-14.3975 2.11305,-74.0526 0,-60.9366 -0.24875,-69.2957 -2.18348,-73.3728 -1.29332,-2.7255 -4.14708,-5.5951 -7,-7.0388 -2.64908,-1.3406 -6.76651,-2.8584 -9.14985,-3.3728 -3.06001,-0.6605 -4.33333,-1.6878 -4.33333,-3.4961 0,-2.4922 1.83583,-2.5607 68.666663,-2.5607 h 68.66667 v 20 c 0,19.8553 -0.0217,19.9999 -3,19.9886 -2.48935,-0.01 -3.41401,-1.3399 -5.4322,-7.8161 -1.33771,-4.2926 -4.29283,-10.062 -6.56694,-12.8209 -2.27411,-2.7589 -6.11035,-5.8417 -8.52498,-6.8506 -3.15975,-1.3202 -10.94205,-1.8343 -27.76639,-1.8343 h -23.37616 v 37.3333 37.3334 h 20.05312 c 17.22362,0 20.76942,-0.3655 25.12966,-2.5899 2.7921,-1.4244 6.04998,-4.0755 7.23974,-5.8913 1.18976,-1.8158 2.9275,-5.7504 3.86165,-8.7435 1.32877,-4.2575 2.35329,-5.442 4.70713,-5.442 h 3.0087 v 28 28 h -3.16667 c -2.48222,0 -3.34737,-0.9036 -4.00274,-4.1804 -0.45985,-2.2992 -2.12757,-6.2701 -3.70605,-8.8241 -1.66518,-2.6943 -5.16229,-5.6848 -8.33059,-7.1237 -4.52572,-2.0553 -8.84607,-2.4849 -25.2347,-2.5092 l -19.77409,-0.029 0.4411,31 c 0.37805,26.5687 0.77782,31.6162 2.79666,35.3108 1.29555,2.3709 4.2954,5.3709 6.66632,6.6667 3.44353,1.8819 7.52963,2.3559 20.31076,2.3559 13.88541,0 16.71689,-0.3838 21.42429,-2.9035 2.98335,-1.5969 7.70043,-5.4229 10.48239,-8.5022 2.78195,-3.0792 6.84758,-9.4227 9.03472,-14.0965 2.18714,-4.6738 4.78465,-8.4978 5.77225,-8.4978 0.9876,0 2.05642,0.45 2.37515,1 0.31872,0.55 -0.2162,10.6 -1.18872,22.3333 -0.97252,11.7333 -1.79789,21.4833 -1.83415,21.6667 -0.0363,0.1833 -31.30766,0.3333 -69.492,0.3333 H 76.406717 Z m 154.932733,0.9238 c -0.40864,-1.0648 -0.4031,-2.486 0.0123,-3.1582 0.4154,-0.6721 3.07832,-1.5935 5.9176,-2.0475 2.83929,-0.454 6.82529,-2.1336 8.85779,-3.7323 2.03251,-1.5988 4.52275,-4.8869 5.53389,-7.3069 1.48904,-3.5637 1.83286,-18.5346 1.80914,-78.7761 -0.0274,-69.6171 -0.1879,-74.7254 -2.50829,-79.8347 -1.90503,-4.1947 -3.75676,-5.9697 -7.9977,-7.6666 -3.03528,-1.2145 -6.72538,-2.2082 -8.20022,-2.2082 -1.47484,0 -3.03682,-0.9259 -3.47107,-2.0575 -0.43425,-1.1316 -0.45773,-2.3893 -0.0522,-2.7948 0.40554,-0.4056 12.62966,-1.5582 27.16472,-2.5615 14.53506,-1.0033 27.17738,-1.8456 28.09404,-1.8718 1.31568,-0.038 1.6789,17.7125 1.72474,84.2856 0.0319,46.3834 0.56318,86.9479 1.18054,90.1435 0.61736,3.1956 2.40591,7.0956 3.97456,8.6667 1.56864,1.5711 5.6874,3.8052 9.15279,4.9648 4.60921,1.5424 6.41509,2.8847 6.72677,5 l 0.42607,2.8917 h -38.80125 c -32.69131,0 -38.91823,-0.3049 -39.54421,-1.9362 z m 91.73392,-0.9311 c 0.31458,-2.117 2.00414,-3.3257 6.45649,-4.6187 3.31673,-0.9633 7.40349,-3.0306 9.08168,-4.5941 1.67819,-1.5634 3.61451,-4.3241 4.30291,-6.1347 0.72634,-1.9105 1.25166,-34.891 1.25166,-78.5815 0,-61.9344 -0.33501,-76.0911 -1.88864,-79.8095 -1.03874,-2.4861 -3.41588,-5.5208 -5.28253,-6.7439 -1.86665,-1.2231 -5.81676,-2.5487 -8.77803,-2.9459 -4.0372,-0.5415 -5.38414,-1.325 -5.38414,-3.1316 0,-1.8359 1.34885,-2.5761 5.66667,-3.1095 3.11667,-0.3851 11.96667,-1.0405 19.66667,-1.4565 7.7,-0.4161 18.05,-1.1153 23,-1.5539 l 9,-0.7975 v 88.2385 c 0,77.4869 0.25446,88.7306 2.08842,92.2771 1.25136,2.4198 4.32424,5.0536 7.66666,6.5712 3.06804,1.3929 6.62825,2.5457 7.91158,2.5618 1.59219,0.02 2.33333,1.0881 2.33333,3.3627 v 3.3333 h -38.7594 -38.75939 z m 409.60749,0.9523 c -0.41309,-1.0765 -0.3625,-2.586 0.11242,-3.3545 0.47493,-0.7684 1.752,-1.3972 2.83794,-1.3972 1.08593,0 4.33816,-1.2059 7.22717,-2.6797 2.889,-1.4739 6.1651,-4.4441 7.28021,-6.6005 1.67809,-3.2451 2.02748,-10.6044 2.02748,-42.7067 0,-35.6564 -0.20719,-39.1921 -2.56769,-43.8191 -1.72968,-3.3904 -4.23182,-5.7459 -7.66667,-7.2173 -2.80443,-1.2014 -6.29897,-2.3708 -7.76564,-2.5988 -1.63256,-0.2537 -2.66667,-1.4414 -2.66667,-3.0628 0,-2.456 1.69561,-2.8115 23.33333,-4.8922 12.83334,-1.2341 25.58334,-2.2841 28.33334,-2.3334 l 5,-0.089 0.0355,18.3334 0.0355,18.3333 3.98119,-7.3333 c 2.18965,-4.0334 6.2345,-10.3144 8.98856,-13.9579 2.75405,-3.6435 7.8215,-8.3644 11.261,-10.4908 3.45084,-2.1335 8.9747,-4.1731 12.3249,-4.5507 3.93764,-0.4438 8.10372,0.092 11.8547,1.5244 3.1809,1.2148 7.08398,3.5931 8.67351,5.285 l 2.89005,3.0764 -3.67007,16.8901 c -2.01854,9.2896 -4.33566,16.8901 -5.14917,16.8901 -0.81351,0 -2.6221,-1.2696 -4.01909,-2.8213 -1.39699,-1.5517 -5.53998,-4.5461 -9.20665,-6.6541 -4.84788,-2.7872 -8.45349,-3.8363 -13.21618,-3.8454 -4.56218,-0.01 -8.24122,0.9789 -12.12469,3.2548 -3.06634,1.7969 -7.16906,5.3569 -9.11715,7.911 l -3.54197,4.6438 v 28.8218 c 0,22.8271 0.41007,29.6149 1.9716,32.6345 1.35192,2.6143 3.97114,4.5256 8.33334,6.0808 3.49894,1.2474 7.15607,2.5001 8.12693,2.7837 0.97087,0.2836 1.56289,1.5675 1.3156,2.8531 -0.41364,2.1503 -3.41081,2.3657 -37.4656,2.6918 -31.54068,0.3021 -37.1271,0.065 -37.76709,-1.6028 z m 338.15187,-0.703 c 0,-1.8211 1.1607,-2.9215 3.6667,-3.4764 2.0167,-0.4465 5.5771,-1.3914 7.912,-2.0997 2.335,-0.7084 6.3125,-3.576 8.839,-6.3725 2.5264,-2.7965 5.8519,-8.4478 7.3899,-12.5584 1.6097,-4.3023 5.3675,-24.321 8.8553,-47.1744 3.3325,-21.8354 7.8222,-51.1006 9.9773,-65.0339 l 3.9183,-25.3334 -4.7399,-4.2514 c -2.607,-2.3382 -7.4895,-5.1882 -10.8501,-6.3333 -3.3606,-1.1451 -7.2033,-2.0819 -8.5393,-2.0819 -1.5403,0 -2.4292,-0.9758 -2.4292,-2.6667 0,-2.5949 0.8889,-2.6667 33.021,-2.6667 h 33.0209 l 23.2312,58.7438 c 12.7771,32.3091 23.6134,58.9801 24.0806,59.2688 0.4671,0.2887 11.5125,-26.146 24.5452,-58.7438 l 23.6959,-59.2688 h 31.2026 c 29.4198,0 31.2026,0.1403 31.2026,2.4556 0,1.7271 -1.6526,2.9508 -5.5703,4.1245 -3.0636,0.9179 -6.9119,2.548 -8.5518,3.6225 -1.6398,1.0745 -3.9332,3.9591 -5.0964,6.4103 -1.1631,2.4513 -2.1123,7.0661 -2.1092,10.2553 0,3.1892 3.9013,32.7985 8.6627,65.7985 4.7614,33 9.5663,62.4395 10.6776,65.4211 1.1112,2.9816 4.0725,7.4101 6.5807,9.8411 2.5082,2.431 7.7508,5.5001 11.6502,6.8202 5.0862,1.7219 7.0898,3.0856 7.0898,4.8255 0,2.2901 -2.5098,2.445 -45,2.7765 -43.4113,0.3387 -45,0.2618 -45,-2.1769 0,-1.7348 2.2597,-3.6335 7.2022,-6.0516 3.9613,-1.9381 8.2013,-5.0485 9.4225,-6.9122 1.2211,-1.8636 2.8629,-6.4984 3.6486,-10.2994 1.2483,-6.04 0.4753,-13.6322 -6.1345,-60.2443 -4.1596,-29.3333 -7.9177,-55.3282 -8.3513,-57.7663 -0.4335,-2.4381 -1.2267,-3.9381 -1.7627,-3.3333 -0.5359,0.6048 -14.0884,33.9771 -30.1166,74.1608 -27.916,69.9866 -29.279,73.0446 -32.3896,72.6666 -2.9789,-0.3619 -5.5789,-6.2892 -31.4624,-71.7278 -15.5183,-39.2333 -28.6435,-72.4692 -29.167,-73.8575 -0.5236,-1.3883 -1.2321,-2.244 -1.5745,-1.9016 -0.3424,0.3424 -4.2283,25.0457 -8.6353,54.8961 -4.407,29.8505 -8.0127,57.5441 -8.0127,61.5413 0,3.9973 0.9683,9.6876 2.1517,12.6452 1.1834,2.9577 3.7389,6.5078 5.6789,7.8892 1.9399,1.3813 6.1093,3.2069 9.2652,4.0567 4.2438,1.1427 5.6248,2.1334 5.3035,3.8045 -0.3922,2.0394 -3.6456,2.2941 -33.4169,2.616 -32.2038,0.3483 -32.9824,0.2938 -32.9824,-2.3079 z m 286.6667,-0.7153 c 0,-2.2746 0.7411,-3.3427 2.3333,-3.3627 1.2833,-0.016 4.8454,-1.1697 7.9156,-2.5637 4.4837,-2.0356 5.8777,-3.5387 7.0832,-7.6373 1.0107,-3.4362 1.3649,-18.2658 1.0844,-45.4012 -0.4047,-39.157 -0.4976,-40.3791 -3.2783,-43.1581 -1.574,-1.573 -6.074,-3.9474 -10,-5.2764 -5.127,-1.7357 -7.1382,-3.0999 -7.1382,-4.8419 0,-2.1671 2.485,-2.6644 23.3333,-4.6692 12.8333,-1.2341 25.5833,-2.2841 28.3333,-2.3334 l 5,-0.089 v 51.6667 c 0,49.2235 0.1304,51.8724 2.6576,56.0172 1.4589,2.3928 4.6066,5.199 6.995,6.236 2.3883,1.037 5.3924,2.2104 6.6758,2.6076 1.2833,0.3972 2.3333,1.941 2.3333,3.4307 0,2.6568 -0.7001,2.7085 -36.6667,2.7085 h -36.6666 z m 28.5055,-153.2488 c -2.2887,-0.9961 -5.8672,-4.0478 -7.9524,-6.7816 -3.0533,-4.0031 -3.7912,-6.3328 -3.7912,-11.9696 0,-5.5479 0.7456,-7.9768 3.5961,-11.7139 2.14,-2.8057 6.0115,-5.6372 9.5615,-6.993 3.9787,-1.5194 7.5483,-1.9812 10.7181,-1.3866 2.614,0.4904 6.8325,2.7177 9.3744,4.9495 2.5419,2.2319 5.3067,6.3444 6.144,9.139 0.8373,2.7946 1.1208,7.2213 0.6301,9.8371 -0.4907,2.6158 -2.4903,6.6553 -4.4436,8.9766 -1.9532,2.3213 -5.5101,5.0389 -7.9041,6.0392 -2.394,1.0003 -6.0221,1.7952 -8.0623,1.7665 -2.0402,-0.029 -5.582,-0.8671 -7.8706,-1.8632 z m -743.61061,-282.1433 -3.56156,-2.8015 V 761.90504 c 0,-355.45878 0.0133,-357.24983 2.66667,-359.90323 2.63925,-2.63926 4.4311,-2.66646 174.33331,-2.64696 148.28337,0.017 172.82847,0.29357 180.19588,2.03022 4.69101,1.10577 12.71861,4.21198 17.83901,6.90268 5.1204,2.69071 12.5662,7.86833 16.5462,11.50585 3.9801,3.63751 9.0375,9.23142 11.2388,12.43092 2.2013,3.1995 5.7694,9.37866 7.9291,13.73148 2.1596,4.35282 5.1204,12.89383 6.5795,18.98001 1.459,6.08619 2.657,14.23507 2.6622,18.10863 0.01,3.87355 -0.8079,8.97355 -1.8067,11.33333 -0.9987,2.35978 -2.9487,5.26529 -4.3333,6.45669 -1.3845,1.19139 -12.4173,7.25976 -24.5173,13.48525 -12.1,6.2255 -28.3639,14.70708 -36.14201,18.84798 l -14.14191,7.52889 -0.8581,-8.20974 c -0.4719,-4.51536 -0.858,-11.31282 -0.858,-15.10548 0,-3.79266 -0.9099,-9.95962 -2.022,-13.70435 -1.259,-4.23956 -3.5082,-8.05926 -5.9611,-10.12317 -2.1665,-1.82301 -6.9861,-3.96804 -10.7103,-4.76673 -4.5733,-0.9808 -42.4347,-1.45216 -116.64286,-1.45216 -77.68291,0 -110.82349,0.43369 -113.12067,1.48036 -1.78697,0.8142 -3.91521,2.94243 -4.72941,4.7294 -1.05304,2.31119 -1.48036,41.31208 -1.48036,135.11195 v 131.86292 l 3.21746,3.74101 3.21747,3.74102 119.38303,0.66667 c 95.41024,0.5328 119.73104,1.01434 121.11584,2.39808 1.3239,1.32277 1.8247,10.93216 2.1218,40.71534 l 0.3889,38.98392 -3.267,3.06917 -3.267,3.0692 -118.23742,0.2155 -118.23741,0.2155 -3.21783,3.741 -3.21784,3.741 v 81.8513 81.85131 l 3.21844,3.741 3.21843,3.741 h 114.44823 114.4482 l 6.6667,-3.3333 c 4.9014,-2.4507 7.3681,-4.7455 9.3159,-8.6667 2.1294,-4.2867 2.7271,-8.604 3.0458,-22 0.2182,-9.16661 0.6855,-18.00911 1.0386,-19.64981 0.3531,-1.6407 2.2547,-4.0398 4.2257,-5.3312 3.2357,-2.1201 6.8915,-2.3033 37.64322,-1.8867 18.7327,0.2539 35.0474,0.9903 36.2549,1.6365 1.2075,0.6462 2.8585,3.0771 3.669,5.402 0.8104,2.325 1.4643,9.9876 1.4529,17.0282 -0.011,7.04061 -0.618,21.58121 -1.3482,32.31241 -0.7301,10.7313 -2.5204,24.2313 -3.9783,30 -1.458,5.7688 -4.8291,14.9296 -7.4913,20.3576 -3.3792,6.8897 -7.7065,12.7632 -14.3343,19.4565 -6.4001,6.4633 -12.3379,10.9755 -18.221,13.8465 -4.8,2.3423 -12,5.2666 -16.00001,6.4983 -6.6206,2.0387 -22.76941,2.2769 -180.04468,2.6561 l -172.77176,0.4165 z m 476.25281,-7.8232 -3.1477,-2.5487 -0.6667,-261.34049 c -0.3666,-143.7373 -1.0224,-261.69618 -1.4572,-262.13085 -0.4348,-0.43467 -42.7348,21.32327 -94,48.35099 -51.26522,27.02772 -109.10942,57.41341 -128.54281,67.52377 -31.93691,16.61544 -35.99131,18.38371 -42.17832,18.39531 -6.0224,0.0113 -9.54756,-1.39386 -29.33333,-11.69246 -12.36858,-6.43791 -32.08833,-16.82188 -43.82166,-23.07547 -11.73333,-6.2536 -24.52087,-13.38848 -28.41674,-15.85531 -4.68266,-2.965 -7.73299,-6.03981 -9,-9.07218 -1.53573,-3.67552 -1.91659,-13.36748 -1.91659,-48.77252 0,-34.81311 0.35352,-44.04485 1.66667,-43.52246 0.91666,0.36466 4.36666,1.75022 7.66666,3.07903 3.3,1.3288 15.6,7.45014 27.33333,13.60297 11.73334,6.15283 32.02431,16.90069 45.09105,23.88413 20.92448,11.18297 24.55324,12.69718 30.42842,12.69718 5.02817,0 8.8634,-1.14505 15.5756,-4.65033 4.8977,-2.55768 42.5049,-22.18898 83.5716,-43.6251 41.0667,-21.43612 93.56672,-49.07901 116.66672,-61.42865 23.1,-12.34964 44.879,-23.16612 48.3978,-24.03663 3.5582,-0.88024 10.5378,-1.28652 15.7252,-0.91536 7.1208,0.50949 11.6003,1.79382 18.9355,5.42913 5.2845,2.61897 13.5531,8.0238 18.3748,12.01074 4.8217,3.98694 10.9594,10.23599 13.6393,13.88679 2.68,3.65079 6.6111,10.17419 8.7358,14.49643 2.1247,4.32224 4.987,12.05862 6.3607,17.19195 2.3972,8.95848 2.4975,18.94576 2.4975,248.66667 0,226.71752 -0.1278,239.87832 -2.4253,249.67142 -1.334,5.686 -4.578,14.641 -7.209,19.9 -3.0811,6.1588 -8.2213,13.1602 -14.4428,19.6721 -5.3126,5.5606 -13.4685,12.3709 -18.1244,15.1341 -4.6558,2.7632 -13.1461,6.5086 -18.8673,8.3232 -5.7212,1.8145 -11.2047,3.2992 -12.1856,3.2992 -0.9809,0 -3.2,-1.1469 -4.9312,-2.5486 z m -560.79344,-2.0121 c -4.57183,-1.6987 -11.74321,-5.1174 -15.93641,-7.5972 -4.1932,-2.4798 -11.25261,-8.1728 -15.68759,-12.651 -4.43497,-4.4782 -10.0899,-11.5332 -12.5665,-15.6779 -2.4766,-4.1447 -5.92303,-11.4481 -7.65873,-16.2299 -1.7357,-4.7818 -3.79026,-14.2268 -4.56569,-20.9888 -0.95572,-8.3342 -1.26717,-87.45651 -0.96685,-245.62785 0.41354,-217.80581 0.5993,-233.91007 2.79152,-242 1.29168,-4.76667 4.55182,-13.16667 7.24477,-18.66667 3.72147,-7.60063 7.62694,-12.71929 16.27708,-21.33333 8.08751,-8.05378 13.94423,-12.58335 20.23936,-15.65305 4.8722,-2.37585 12.96628,-5.27237 17.98684,-6.43672 5.72699,-1.32817 11.36888,-1.79411 15.14145,-1.25045 3.30724,0.47659 9.01316,2.22981 12.67982,3.89603 3.66667,1.66622 11.83137,6.37131 18.14378,10.45575 9.53065,6.1668 11.6211,8.14615 12.32607,11.67102 0.46692,2.33462 0.45594,23.05649 -0.0244,46.0486 -0.48035,22.99212 -1.3516,42.57765 -1.93611,43.52341 -0.804,1.3009 -5.28537,-0.37178 -18.40579,-6.86998 -9.53866,-4.72426 -17.81414,-8.11856 -18.38994,-7.54289 -0.57581,0.57567 -1.34692,117.84679 -1.71359,260.60248 -0.5343,208.02265 -1.00688,260.15145 -2.38024,262.55585 -1.4075,2.4641 -2.83647,2.9875 -8,2.9305 -3.45753,-0.038 -10.02701,-1.4593 -14.59883,-3.1579 z"
       id="path1" />
  </g>
</svg>
